<svg width="20" height="20" viewBox="0 0 20 20" fill="none" xmlns="http://www.w3.org/2000/svg">
<path d="M1.66675 9.99996C1.66675 6.07159 1.66675 4.1074 2.88714 2.88701C4.10752 1.66663 6.07171 1.66663 10.0001 1.66663C13.9285 1.66663 15.8926 1.66663 17.113 2.88701C18.3334 4.1074 18.3334 6.07159 18.3334 9.99996C18.3334 13.9283 18.3334 15.8925 17.113 17.1129C15.8926 18.3333 13.9285 18.3333 10.0001 18.3333C6.07171 18.3333 4.10752 18.3333 2.88714 17.1129C1.66675 15.8925 1.66675 13.9283 1.66675 9.99996Z" stroke="#FEFEFE"/>
<path d="M13.3334 7.91671L6.66675 7.91671M6.66675 7.91671L8.95841 5.83337M6.66675 7.91671L8.95841 10" stroke="#FEFEFE" stroke-linecap="round" stroke-linejoin="round"/>
<path d="M6.66659 12.0833L13.3333 12.0833M13.3333 12.0833L11.0416 10M13.3333 12.0833L11.0416 14.1667" stroke="#FEFEFE" stroke-linecap="round" stroke-linejoin="round"/>
</svg>
