<svg width="32" height="29" viewBox="0 0 32 29" fill="none" xmlns="http://www.w3.org/2000/svg">
<path d="M10.6667 3.625H8C6.93913 3.625 5.92172 4.00692 5.17157 4.68674C4.42143 5.36656 4 6.28859 4 7.25V9.66667C4 10.6281 4.42143 11.5501 5.17157 12.2299C5.92172 12.9097 6.93913 13.2917 8 13.2917H10.6667C11.7275 13.2917 12.7449 12.9097 13.4951 12.2299C14.2452 11.5501 14.6667 10.6281 14.6667 9.66667V7.25C14.6667 6.28859 14.2452 5.36656 13.4951 4.68674C12.7449 4.00692 11.7275 3.625 10.6667 3.625ZM12 9.66667C12 9.98714 11.8595 10.2945 11.6095 10.5211C11.3594 10.7477 11.0203 10.875 10.6667 10.875H8C7.64638 10.875 7.30724 10.7477 7.05719 10.5211C6.80714 10.2945 6.66667 9.98714 6.66667 9.66667V7.25C6.66667 6.92953 6.80714 6.62219 7.05719 6.39558C7.30724 6.16897 7.64638 6.04167 8 6.04167H10.6667C11.0203 6.04167 11.3594 6.16897 11.6095 6.39558C11.8595 6.62219 12 6.92953 12 7.25V9.66667ZM10.6667 15.7083H8C6.93913 15.7083 5.92172 16.0903 5.17157 16.7701C4.42143 17.4499 4 18.3719 4 19.3333V21.75C4 22.7114 4.42143 23.6334 5.17157 24.3133C5.92172 24.9931 6.93913 25.375 8 25.375H10.6667C11.7275 25.375 12.7449 24.9931 13.4951 24.3133C14.2452 23.6334 14.6667 22.7114 14.6667 21.75V19.3333C14.6667 18.3719 14.2452 17.4499 13.4951 16.7701C12.7449 16.0903 11.7275 15.7083 10.6667 15.7083ZM12 21.75C12 22.0705 11.8595 22.3778 11.6095 22.6044C11.3594 22.831 11.0203 22.9583 10.6667 22.9583H8C7.64638 22.9583 7.30724 22.831 7.05719 22.6044C6.80714 22.3778 6.66667 22.0705 6.66667 21.75V19.3333C6.66667 19.0129 6.80714 18.7055 7.05719 18.4789C7.30724 18.2523 7.64638 18.125 8 18.125H10.6667C11.0203 18.125 11.3594 18.2523 11.6095 18.4789C11.8595 18.7055 12 19.0129 12 19.3333V21.75ZM24 3.625H21.3333C20.2725 3.625 19.2551 4.00692 18.5049 4.68674C17.7548 5.36656 17.3333 6.28859 17.3333 7.25V9.66667C17.3333 10.6281 17.7548 11.5501 18.5049 12.2299C19.2551 12.9097 20.2725 13.2917 21.3333 13.2917H24C25.0609 13.2917 26.0783 12.9097 26.8284 12.2299C27.5786 11.5501 28 10.6281 28 9.66667V7.25C28 6.28859 27.5786 5.36656 26.8284 4.68674C26.0783 4.00692 25.0609 3.625 24 3.625ZM25.3333 9.66667C25.3333 9.98714 25.1929 10.2945 24.9428 10.5211C24.6928 10.7477 24.3536 10.875 24 10.875H21.3333C20.9797 10.875 20.6406 10.7477 20.3905 10.5211C20.1405 10.2945 20 9.98714 20 9.66667V7.25C20 6.92953 20.1405 6.62219 20.3905 6.39558C20.6406 6.16897 20.9797 6.04167 21.3333 6.04167H24C24.3536 6.04167 24.6928 6.16897 24.9428 6.39558C25.1929 6.62219 25.3333 6.92953 25.3333 7.25V9.66667ZM24 15.7083H21.3333C20.2725 15.7083 19.2551 16.0903 18.5049 16.7701C17.7548 17.4499 17.3333 18.3719 17.3333 19.3333V21.75C17.3333 22.7114 17.7548 23.6334 18.5049 24.3133C19.2551 24.9931 20.2725 25.375 21.3333 25.375H24C25.0609 25.375 26.0783 24.9931 26.8284 24.3133C27.5786 23.6334 28 22.7114 28 21.75V19.3333C28 18.3719 27.5786 17.4499 26.8284 16.7701C26.0783 16.0903 25.0609 15.7083 24 15.7083ZM25.3333 21.75C25.3333 22.0705 25.1929 22.3778 24.9428 22.6044C24.6928 22.831 24.3536 22.9583 24 22.9583H21.3333C20.9797 22.9583 20.6406 22.831 20.3905 22.6044C20.1405 22.3778 20 22.0705 20 21.75V19.3333C20 19.0129 20.1405 18.7055 20.3905 18.4789C20.6406 18.2523 20.9797 18.125 21.3333 18.125H24C24.3536 18.125 24.6928 18.2523 24.9428 18.4789C25.1929 18.7055 25.3333 19.0129 25.3333 19.3333V21.75Z" fill="#6C6868"/>
</svg>
