<svg width="10" height="15" viewBox="0 0 10 15" fill="none" xmlns="http://www.w3.org/2000/svg">
<path d="M1.25 3C1.94036 3 2.5 2.44036 2.5 1.75C2.5 1.05964 1.94036 0.5 1.25 0.5C0.559644 0.5 0 1.05964 0 1.75C0 2.44036 0.559644 3 1.25 3Z" fill="#6C6868"/>
<path d="M1.25 8.83301C1.94036 8.83301 2.5 8.27336 2.5 7.58301C2.5 6.89265 1.94036 6.33301 1.25 6.33301C0.559644 6.33301 0 6.89265 0 7.58301C0 8.27336 0.559644 8.83301 1.25 8.83301Z" fill="#6C6868"/>
<path d="M1.25 14.667C1.94036 14.667 2.5 14.1073 2.5 13.417C2.5 12.7266 1.94036 12.167 1.25 12.167C0.559644 12.167 0 12.7266 0 13.417C0 14.1073 0.559644 14.667 1.25 14.667Z" fill="#6C6868"/>
<path d="M8.75 3C9.44036 3 10 2.44036 10 1.75C10 1.05964 9.44036 0.5 8.75 0.5C8.05964 0.5 7.5 1.05964 7.5 1.75C7.5 2.44036 8.05964 3 8.75 3Z" fill="#6C6868"/>
<path d="M8.75 8.83301C9.44036 8.83301 10 8.27336 10 7.58301C10 6.89265 9.44036 6.33301 8.75 6.33301C8.05964 6.33301 7.5 6.89265 7.5 7.58301C7.5 8.27336 8.05964 8.83301 8.75 8.83301Z" fill="#6C6868"/>
<path d="M8.75 14.667C9.44036 14.667 10 14.1073 10 13.417C10 12.7266 9.44036 12.167 8.75 12.167C8.05964 12.167 7.5 12.7266 7.5 13.417C7.5 14.1073 8.05964 14.667 8.75 14.667Z" fill="#6C6868"/>
</svg>
