<svg width="20" height="20" viewBox="0 0 20 20" fill="none" xmlns="http://www.w3.org/2000/svg">
<path d="M12.4985 5.83332C12.4884 4.0208 12.4081 3.03921 11.7678 2.39889C11.0355 1.66666 9.85701 1.66666 7.49998 1.66666L6.66665 1.66666C4.30963 1.66666 3.13112 1.66666 2.39888 2.39889C1.66665 3.13112 1.66665 4.30963 1.66665 6.66666L1.66665 13.3333C1.66665 15.6903 1.66665 16.8689 2.39888 17.6011C3.13112 18.3333 4.30963 18.3333 6.66665 18.3333L7.49998 18.3333C9.85701 18.3333 11.0355 18.3333 11.7678 17.6011C12.4081 16.9608 12.4884 15.9792 12.4985 14.1667" stroke="#D1132A" stroke-linecap="round"/>
<path d="M7.50024 10L18.3336 10M18.3336 10L15.4169 7.5M18.3336 10L15.4169 12.5" stroke="#D1132A" stroke-linecap="round" stroke-linejoin="round"/>
</svg>
