<svg width="62" height="62" viewBox="0 0 62 62" fill="none" xmlns="http://www.w3.org/2000/svg">
<circle cx="31" cy="31" r="30" fill="#ECECEC"/>
<path d="M38.1446 25.861C38.1446 25.9755 38.1446 26.0899 38.1446 26.2044L37.0569 24.7003L34.4528 28.1008L33.0355 29.9482L31.717 28.0681L31.0247 27.0872L29.937 25.5341L27.9757 22.7221C28.9811 21.267 30.6622 20.3025 32.5905 20.3025C35.6725 20.3025 38.1611 22.7711 38.1611 25.8283L38.1446 25.861Z" fill="#6C6868"/>
<path d="M47.8026 40.7875H13.3239L22.9654 27.6103L23.4269 26.9727L24.8607 29.0163L25.8661 27.5123L26.8385 28.6403L27.3494 27.8065L28.2723 26.3351L29.6073 29.3597L30.2171 27.2507L30.761 28.0191L31.1071 28.5095L33.0025 31.2234L33.7936 30.1771L34.3045 29.5232L34.8978 30.782L36.7107 28.9509L36.9415 29.2943L37.6337 30.2588L39.4137 29.2125L39.7763 29.7357L39.8422 29.8174L47.8026 40.7875Z" fill="white" stroke="#6C6868" stroke-width="0.5" stroke-miterlimit="10"/>
<path d="M30.2172 27.2507L29.6073 29.3597L28.2724 26.3352L27.3494 27.8065L26.8385 28.6403L25.8661 27.5123L24.8607 29.0164L23.4269 26.9728L23.8884 26.3515L26.8055 22.3788L27.5637 23.4578L29.6733 26.4659L30.2172 27.2507Z" fill="white" stroke="#6C6868" stroke-width="0.5" stroke-miterlimit="10"/>
<path d="M39.4137 29.2125L37.6337 30.2589L36.9415 29.2943L36.7108 28.951L34.8978 30.782L34.3045 29.5232L34.7989 28.8692L37.0404 25.9428L37.9798 27.2343L38.9687 28.624L39.4137 29.2125Z" fill="white" stroke="#6C6868" stroke-width="0.5" stroke-miterlimit="10"/>
<path d="M22.9324 20.9074C22.9324 21.2343 22.6522 21.4796 22.3391 21.4796H15.8784C15.6312 21.4796 15.4005 21.3161 15.3181 21.0872C15.2521 20.9074 15.2192 20.7112 15.2192 20.515C15.2192 19.7793 15.6971 19.1417 16.3564 18.8965C16.5212 18.8311 16.6695 18.7003 16.719 18.5204C16.9662 17.752 17.6914 17.1962 18.5484 17.1962C19.5043 17.1962 20.2954 17.8828 20.4437 18.782C20.4437 18.782 20.4602 18.782 20.4767 18.782C21.1689 18.782 21.7787 19.1907 22.0424 19.7793C22.1083 19.9264 22.2237 20.0409 22.372 20.0899C22.7181 20.2044 22.9654 20.5313 22.9654 20.9074H22.9324Z" fill="white" stroke="#6C6868" stroke-width="0.5" stroke-miterlimit="10"/>
<path d="M19.1747 27.2997C19.1747 27.4959 19.0099 27.6431 18.8121 27.6431H14.972C14.8236 27.6431 14.6918 27.545 14.6423 27.4142C14.6094 27.2997 14.5764 27.1853 14.5764 27.0708C14.5764 26.6294 14.8566 26.2534 15.2521 26.1063C15.351 26.0736 15.4334 25.9918 15.4664 25.8937C15.6147 25.436 16.0432 25.109 16.5542 25.109C17.1145 25.109 17.5925 25.5177 17.6749 26.0409C17.6749 26.0409 17.6749 26.0409 17.6914 26.0409C18.1034 26.0409 18.466 26.2861 18.6308 26.6294C18.6638 26.7112 18.7297 26.7766 18.8286 26.8093C19.0264 26.8747 19.1747 27.0708 19.1747 27.2997Z" fill="white" stroke="#6C6868" stroke-width="0.5" stroke-miterlimit="10"/>
<path d="M45.4623 21.545C45.4623 21.7411 45.2975 21.8883 45.0997 21.8883H41.2596C41.1112 21.8883 40.9794 21.7902 40.9299 21.6594C40.897 21.545 40.864 21.4305 40.864 21.3161C40.864 20.8747 41.1442 20.4986 41.5397 20.3515C41.6386 20.3188 41.721 20.2371 41.754 20.139C41.9023 19.6812 42.3308 19.3542 42.8418 19.3542C43.4021 19.3542 43.8801 19.7629 43.9625 20.2861C43.9625 20.2861 43.9625 20.2861 43.979 20.2861C44.391 20.2861 44.7536 20.5313 44.9184 20.8747C44.9514 20.9564 45.0173 21.0218 45.1162 21.0545C45.314 21.1199 45.4623 21.3161 45.4623 21.545Z" fill="white" stroke="#6C6868" stroke-width="0.5" stroke-miterlimit="10"/>
<path d="M46.7149 26.1717C46.7149 26.2861 46.616 26.3842 46.5006 26.3842H44.1273C44.0285 26.3842 43.946 26.3188 43.9131 26.2371C43.8966 26.1717 43.8801 26.1063 43.8801 26.0245C43.8801 25.7466 44.0614 25.5177 44.2922 25.436C44.3581 25.4196 44.4075 25.3706 44.424 25.3052C44.5229 25.0272 44.7866 24.8147 45.0997 24.8147C45.4458 24.8147 45.7425 25.0599 45.792 25.4033C46.0557 25.4033 46.2699 25.5504 46.3688 25.7629C46.3853 25.812 46.4347 25.861 46.4842 25.8774C46.616 25.9264 46.6984 26.0409 46.6984 26.1717H46.7149Z" fill="white" stroke="#6C6868" stroke-width="0.5" stroke-miterlimit="10"/>
<path d="M14.9061 38.5804V40.7875" stroke="#6C6868" stroke-width="0.5" stroke-miterlimit="10"/>
<path d="M15.2851 31.7793H14.527C13.644 31.7793 12.9283 32.4893 12.9283 33.3651V36.9782C12.9283 37.854 13.644 38.564 14.527 38.564H15.2851C16.168 38.564 16.8838 37.854 16.8838 36.9782V33.3651C16.8838 32.4893 16.168 31.7793 15.2851 31.7793Z" fill="white" stroke="#6C6868" stroke-width="0.5" stroke-miterlimit="10"/>
<path d="M30.5962 38.5804V40.7875" stroke="#6C6868" stroke-width="0.5" stroke-miterlimit="10"/>
<path d="M30.9753 31.7793H30.2172C29.3342 31.7793 28.6185 32.4893 28.6185 33.3651V36.9782C28.6185 37.854 29.3342 38.564 30.2172 38.564H30.9753C31.8582 38.564 32.574 37.854 32.574 36.9782V33.3651C32.574 32.4893 31.8582 31.7793 30.9753 31.7793Z" fill="white" stroke="#6C6868" stroke-width="0.5" stroke-miterlimit="10"/>
<path d="M28.1735 39.4632V40.7875" stroke="#6C6868" stroke-width="0.5" stroke-miterlimit="10"/>
<path d="M28.4207 35.376H27.9427C27.4148 35.376 26.9868 35.8006 26.9868 36.3243V38.515C26.9868 39.0387 27.4148 39.4632 27.9427 39.4632H28.4207C28.9486 39.4632 29.3766 39.0387 29.3766 38.515V36.3243C29.3766 35.8006 28.9486 35.376 28.4207 35.376Z" fill="white" stroke="#6C6868" stroke-width="0.5" stroke-miterlimit="10"/>
<path d="M33.1343 39.4632V40.7875" stroke="#6C6868" stroke-width="0.5" stroke-miterlimit="10"/>
<path d="M33.3816 35.376H32.9036C32.3757 35.376 31.9477 35.8006 31.9477 36.3243V38.515C31.9477 39.0387 32.3757 39.4632 32.9036 39.4632H33.3816C33.9095 39.4632 34.3375 39.0387 34.3375 38.515V36.3243C34.3375 35.8006 33.9095 35.376 33.3816 35.376Z" fill="white" stroke="#6C6868" stroke-width="0.5" stroke-miterlimit="10"/>
<path d="M49.0552 39.4632V40.7875" stroke="#6C6868" stroke-width="0.5" stroke-miterlimit="10"/>
<path d="M49.3025 35.376H48.8245C48.2966 35.376 47.8686 35.8006 47.8686 36.3243V38.515C47.8686 39.0387 48.2966 39.4632 48.8245 39.4632H49.3025C49.8304 39.4632 50.2584 39.0387 50.2584 38.515V36.3243C50.2584 35.8006 49.8304 35.376 49.3025 35.376Z" fill="white" stroke="#6C6868" stroke-width="0.5" stroke-miterlimit="10"/>
<path d="M47.2587 38.7766V40.7875" stroke="#6C6868" stroke-width="0.5" stroke-miterlimit="10"/>
<path d="M47.6213 32.5804H46.9126C46.1116 32.5804 45.4623 33.2245 45.4623 34.0191V37.3379C45.4623 38.1324 46.1116 38.7766 46.9126 38.7766H47.6213C48.4223 38.7766 49.0717 38.1324 49.0717 37.3379V34.0191C49.0717 33.2245 48.4223 32.5804 47.6213 32.5804Z" fill="white" stroke="#6C6868" stroke-width="0.5" stroke-miterlimit="10"/>
<path d="M11 40.7875H51" stroke="#6C6868" stroke-width="0.5" stroke-miterlimit="10"/>
<path d="M14.6713 42.0399V44.9587H14V42.0399H14.6713Z" fill="#6C6868"/>
<path d="M15.2236 42.0399H16.0515L16.9259 44.001H16.9631L17.8375 42.0399H18.6653V44.9587H18.0142V43.0589H17.9879L17.1662 44.9444H16.7228L15.9011 43.0518H15.8747V44.9587H15.2236V42.0399Z" fill="#6C6868"/>
<path d="M21.3238 42.9834C21.3021 42.914 21.2716 42.8527 21.2323 42.7995C21.193 42.7454 21.145 42.6998 21.0881 42.6627C21.0323 42.6247 20.9682 42.5957 20.8959 42.5758C20.8246 42.5558 20.7455 42.5458 20.6587 42.5458C20.4964 42.5458 20.3538 42.5829 20.2308 42.657C20.1088 42.7311 20.0138 42.839 19.9455 42.9805C19.8773 43.1211 19.8432 43.2931 19.8432 43.4964C19.8432 43.6998 19.8768 43.8727 19.944 44.0152C20.0112 44.1577 20.1063 44.2665 20.2293 44.3416C20.3522 44.4157 20.4975 44.4527 20.6649 44.4527C20.8168 44.4527 20.9465 44.428 21.054 44.3786C21.1626 44.3283 21.2452 44.2575 21.3021 44.1663C21.36 44.0751 21.3889 43.9672 21.3889 43.8428L21.5253 43.8613H20.7068V43.3967H22.0354V43.7644C22.0354 44.0209 21.9765 44.2413 21.8587 44.4257C21.7408 44.609 21.5786 44.7506 21.3718 44.8504C21.1651 44.9492 20.9285 44.9986 20.6618 44.9986C20.3641 44.9986 20.1026 44.9382 19.8773 44.8176C19.652 44.696 19.4763 44.5235 19.3502 44.3002C19.2251 44.076 19.1626 43.81 19.1626 43.5021C19.1626 43.2656 19.1998 43.0546 19.2742 42.8694C19.3497 42.6831 19.4551 42.5254 19.5905 42.3962C19.7259 42.267 19.8835 42.1686 20.0634 42.1012C20.2432 42.0337 20.438 42 20.6478 42C20.8277 42 20.9951 42.0242 21.1501 42.0727C21.3052 42.1202 21.4426 42.1876 21.5625 42.2751C21.6835 42.3625 21.7822 42.4665 21.8587 42.5872C21.9351 42.7069 21.9842 42.839 22.0059 42.9834H21.3238Z" fill="#6C6868"/>
<path d="M26.2058 42.0399V44.9587H25.626L24.2446 43.1216H24.2214V44.9587H23.5501V42.0399H24.1392L25.5097 43.8755H25.5376V42.0399H26.2058Z" fill="#6C6868"/>
<path d="M29.6782 43.4993C29.6782 43.8176 29.6125 44.0884 29.4813 44.3116C29.351 44.5349 29.1733 44.7055 28.948 44.8233C28.7237 44.9401 28.4715 44.9986 28.1914 44.9986C27.9092 44.9986 27.656 44.9397 27.4317 44.8219C27.2074 44.704 27.0302 44.5335 26.9 44.3102C26.7697 44.0869 26.7046 43.8166 26.7046 43.4993C26.7046 43.181 26.7697 42.9102 26.9 42.6869C27.0302 42.4637 27.2074 42.2936 27.4317 42.1767C27.656 42.0589 27.9092 42 28.1914 42C28.4715 42 28.7237 42.0589 28.948 42.1767C29.1733 42.2936 29.351 42.4637 29.4813 42.6869C29.6125 42.9102 29.6782 43.181 29.6782 43.4993ZM28.9976 43.4993C28.9976 43.2931 28.964 43.1192 28.8968 42.9777C28.8306 42.8361 28.7371 42.7287 28.6162 42.6556C28.4953 42.5824 28.3537 42.5458 28.1914 42.5458C28.0291 42.5458 27.8875 42.5824 27.7666 42.6556C27.6457 42.7287 27.5516 42.8361 27.4844 42.9777C27.4183 43.1192 27.3852 43.2931 27.3852 43.4993C27.3852 43.7055 27.4183 43.8793 27.4844 44.0209C27.5516 44.1625 27.6457 44.2698 27.7666 44.343C27.8875 44.4162 28.0291 44.4527 28.1914 44.4527C28.3537 44.4527 28.4953 44.4162 28.6162 44.343C28.7371 44.2698 28.8306 44.1625 28.8968 44.0209C28.964 43.8793 28.9976 43.7055 28.9976 43.4993Z" fill="#6C6868"/>
<path d="M29.9095 42.5487V42.0399H32.5172V42.5487H31.5452V44.9587H30.8816V42.5487H29.9095Z" fill="#6C6868"/>
<path d="M33.9571 44.9587V42.0399H36.0593V42.5487H34.6284V43.2442H35.9198V43.753H34.6284V44.9587H33.9571Z" fill="#6C6868"/>
<path d="M39.4286 43.4993C39.4286 43.8176 39.363 44.0884 39.2317 44.3116C39.1015 44.5349 38.9237 44.7055 38.6984 44.8233C38.4741 44.9401 38.2219 44.9986 37.9418 44.9986C37.6597 44.9986 37.4065 44.9397 37.1822 44.8219C36.9579 44.704 36.7806 44.5335 36.6504 44.3102C36.5202 44.0869 36.4551 43.8166 36.4551 43.4993C36.4551 43.181 36.5202 42.9102 36.6504 42.6869C36.7806 42.4637 36.9579 42.2936 37.1822 42.1767C37.4065 42.0589 37.6597 42 37.9418 42C38.2219 42 38.4741 42.0589 38.6984 42.1767C38.9237 42.2936 39.1015 42.4637 39.2317 42.6869C39.363 42.9102 39.4286 43.181 39.4286 43.4993ZM38.748 43.4993C38.748 43.2931 38.7144 43.1192 38.6472 42.9777C38.5811 42.8361 38.4876 42.7287 38.3666 42.6556C38.2457 42.5824 38.1041 42.5458 37.9418 42.5458C37.7796 42.5458 37.638 42.5824 37.517 42.6556C37.3961 42.7287 37.3021 42.8361 37.2349 42.9777C37.1687 43.1192 37.1357 43.2931 37.1357 43.4993C37.1357 43.7055 37.1687 43.8793 37.2349 44.0209C37.3021 44.1625 37.3961 44.2698 37.517 44.343C37.638 44.4162 37.7796 44.4527 37.9418 44.4527C38.1041 44.4527 38.2457 44.4162 38.3666 44.343C38.4876 44.2698 38.5811 44.1625 38.6472 44.0209C38.7144 43.8793 38.748 43.7055 38.748 43.4993Z" fill="#6C6868"/>
<path d="M41.8871 42.0399H42.5584V43.9354C42.5584 44.1482 42.5031 44.3344 42.3925 44.4941C42.2829 44.6537 42.1294 44.7781 41.932 44.8675C41.7346 44.9558 41.5046 45 41.2421 45C40.9786 45 40.7481 44.9558 40.5507 44.8675C40.3533 44.7781 40.1998 44.6537 40.0902 44.4941C39.9807 44.3344 39.9259 44.1482 39.9259 43.9354V42.0399H40.5972V43.8827C40.5972 43.9938 40.6235 44.0926 40.6762 44.1791C40.73 44.2656 40.8054 44.3335 40.9026 44.3829C40.9997 44.4323 41.1129 44.457 41.2421 44.457C41.3723 44.457 41.4855 44.4323 41.5816 44.3829C41.6788 44.3335 41.7537 44.2656 41.8064 44.1791C41.8602 44.0926 41.8871 43.9938 41.8871 43.8827V42.0399Z" fill="#6C6868"/>
<path d="M45.7664 42.0399V44.9587H45.1866L43.8052 43.1216H43.782V44.9587H43.1107V42.0399H43.6998L45.0703 43.8755H45.0982V42.0399H45.7664Z" fill="#6C6868"/>
<path d="M47.4466 44.9587H46.321V42.0399H47.4559C47.7752 42.0399 48.0502 42.0983 48.2806 42.2152C48.5111 42.3311 48.6884 42.4979 48.8124 42.7154C48.9375 42.933 49 43.1933 49 43.4964C49 43.8005 48.9375 44.0618 48.8124 44.2803C48.6884 44.4988 48.5101 44.6665 48.2775 44.7834C48.046 44.9002 47.769 44.9587 47.4466 44.9587ZM46.9923 44.4299H47.4187C47.6171 44.4299 47.784 44.3976 47.9194 44.333C48.0558 44.2675 48.1582 44.1663 48.2264 44.0295C48.2956 43.8917 48.3303 43.714 48.3303 43.4964C48.3303 43.2808 48.2956 43.1045 48.2264 42.9677C48.1582 42.8309 48.0564 42.7302 47.921 42.6656C47.7856 42.601 47.6186 42.5686 47.4202 42.5686H46.9923V44.4299Z" fill="#6C6868"/>
<rect x="0.75" y="0.75" width="60.5" height="60.5" rx="30.25" stroke="#BDBDBD" stroke-width="0.5"/>
</svg>
